<svg width="458" height="458" viewBox="0 0 458 458" fill="none" xmlns="http://www.w3.org/2000/svg">
<path d="M229.198 0.5C102.898 0.5 0.398438 102.9 0.398438 229.3C0.398438 355.7 102.898 458 229.198 458C355.498 458 457.998 355.6 457.998 229.2C457.998 102.8 355.598 0.5 229.198 0.5ZM229.098 428.7C118.998 428.7 29.7984 339.5 29.7984 229.4C29.7984 119.3 118.998 30.1 229.098 30.1C339.198 30.1 428.398 119.3 428.398 229.4C428.398 339.5 339.198 428.7 229.098 428.7Z" fill="#7D7D7D"/>
<path d="M338.4 177.9C336.3 166.3 326.2 157.8 314.6 155.1C297.1 151.4 264.8 148.7 229.8 148.7C194.9 148.7 162 151.3 144.5 155.1C132.9 157.7 122.8 165.7 120.7 177.9C118.6 191.1 116.5 209.7 116.5 233.5C116.5 257.3 118.6 275.9 121.3 289.1C123.4 300.7 133.5 309.2 145.1 311.9C163.6 315.6 195.4 318.3 230.4 318.3C265.4 318.3 297.1 315.7 315.7 311.9C327.3 309.3 337.4 301.3 339.5 289.1C341.6 275.9 344.3 256.8 344.8 233.5C343.7 209.7 341 191.1 338.4 177.9ZM201.2 270.6V196.4L265.8 233.5L201.2 270.6Z" fill="#7D7D7D"/>
</svg>
